<?xml version="1.0" encoding="UTF-8"?>
<svg version="1.1" xmlns="http://www.w3.org/2000/svg" width="1254" height="1254">
<path d="M0 0 C413.82 0 827.64 0 1254 0 C1254 413.82 1254 827.64 1254 1254 C840.18 1254 426.36 1254 0 1254 C0 840.18 0 426.36 0 0 Z " fill="#FDFDFD" transform="translate(0,0)"/>
<path d="M0 0 C10.01625278 0.28714857 20.02872568 0.30914396 30.04845415 0.32392048 C47.92265222 0.35821021 65.78671026 0.61026528 83.65649628 0.99624916 C100.94362587 1.36935208 118.22480174 1.60180498 135.51587128 1.67300697 C136.58586102 1.67743933 137.65585076 1.68187169 138.75826443 1.68643836 C140.91427446 1.69525586 143.07028461 1.70404595 145.22629487 1.71280847 C146.82208935 1.71930607 146.82208935 1.71930607 148.45012211 1.72593494 C149.51154623 1.73019104 150.57297035 1.73444714 151.66655883 1.73883221 C168.24497156 1.80984971 184.8224343 1.99004342 201.39974786 2.18859826 C206.38619379 2.24786292 211.37258544 2.30181104 216.35921049 2.34364768 C226.81309024 2.43173408 237.26367892 2.55646169 247.71513552 2.80480687 C252.02943202 2.90674541 256.34118157 2.98812492 260.65669655 3.00953193 C289.17875555 3.17808729 289.17875555 3.17808729 297.07360667 10.27191569 C299.23947391 12.61555619 301.12745887 15.01782813 302.870103 17.68995913 C304.28593091 19.84501089 305.97086557 21.70008132 307.71631074 23.59219642 C308.23064667 24.1980558 308.74498261 24.80391517 309.27490449 25.42813392 C312.79050324 29.41523651 316.64826039 33.08396914 320.43506074 36.81094642 C325.56536861 41.86020678 330.60105627 46.90548126 335.24951386 52.40664955 C336.92728516 54.45967927 336.92728516 54.45967927 339.49988389 56.05579944 C343.12104389 59.71977138 342.5569341 64.31163592 342.61310196 69.18433883 C342.60367379 70.55542745 342.5937684 71.92651286 342.5834372 73.29759498 C342.59063054 74.75639998 342.59999677 76.21519562 342.61134958 77.67397418 C342.63613328 81.68356541 342.62964423 85.69259188 342.61800217 89.70222052 C342.61081595 94.02617368 342.63231465 98.34999771 342.65005707 102.67390724 C342.68002916 111.14563247 342.68261914 119.61715502 342.67504391 128.08892178 C342.66922287 134.97472124 342.67240651 141.86046009 342.68201661 148.74625488 C342.68403202 150.21549085 342.68403202 150.21549085 342.68608816 151.71440835 C342.68883135 153.70417285 342.69158383 155.69393733 342.6943455 157.68370179 C342.71896035 176.35150405 342.71133749 195.01919133 342.69377544 213.68699453 C342.67867656 230.76596117 342.70286199 247.84460514 342.74580785 264.92351603 C342.78956223 282.45701773 342.80744412 299.99036808 342.79703188 317.52392401 C342.79162417 327.36890847 342.79637356 337.21363386 342.82799744 347.05857559 C342.85461572 355.44073084 342.85669611 363.82245467 342.82713636 372.20460748 C342.81271998 376.48124565 342.80953049 380.75710503 342.83679032 385.03369804 C342.86145606 388.95053458 342.8536854 392.86593095 342.8202894 396.78269045 C342.81386966 398.19787983 342.8192103 399.61318286 342.83763691 401.02826684 C342.98129334 412.89777861 342.98129334 412.89777861 338.58945298 417.99371143 C337.39680243 419.12689243 336.17909698 420.23442966 334.93506074 421.31094642 C333.81234062 422.45141168 332.6959859 423.5982196 331.58935761 424.7543058 C330.44663919 425.89025329 329.30138159 427.02365123 328.15381074 428.15469642 C327.2280423 429.07478492 327.2280423 429.07478492 326.28357148 430.01346107 C323.68247285 432.59844161 321.07536059 435.17732464 318.46875214 437.7567472 C309.08481324 446.9958351 309.08481324 446.9958351 300.25586152 456.75870033 C298.4735339 458.8533471 296.57057986 460.80823499 294.62256074 462.74844642 C293.96642792 463.40715736 293.31029511 464.0658683 292.63427949 464.74454017 C289.49392833 467.6394386 287.19395217 467.44356827 283.01655793 467.46472069 C281.11267619 467.47788279 281.11267619 467.47788279 279.17033219 467.49131079 C277.74856564 467.49605876 276.3267987 467.50069142 274.90503144 467.50522133 C273.40487787 467.5135273 271.90472652 467.52224096 270.40457749 467.53132935 C266.26684172 467.55501036 262.12910027 467.57222433 257.99132871 467.58826156 C254.44592728 467.60277857 250.90054823 467.62095738 247.35516375 467.63909297 C213.74328429 467.8102514 180.13087491 467.89472587 146.51864838 467.9630117 C142.14198991 467.97206047 137.76533182 467.98127007 133.38867402 467.99063392 C132.30085373 467.99295384 131.21303345 467.99527375 130.09224891 467.99766396 C112.47439055 468.03642838 94.85696842 468.11695831 77.23934376 468.21376269 C59.15678573 468.3122991 41.07445412 468.36918737 22.99163365 468.3865902 C12.83664844 468.3974968 2.68245905 468.42726357 -7.47225738 468.50454231 C-16.12203055 468.5703471 -24.77090724 468.59897868 -33.42092568 468.57897477 C-37.83396082 468.56994622 -42.24505708 468.57869798 -46.65777564 468.6356649 C-50.70183197 468.68746678 -54.74261167 468.68803288 -58.78677786 468.64862155 C-60.24589309 468.64329672 -61.7052231 468.65642761 -63.1639539 468.69034021 C-69.29329795 468.82430744 -74.11148813 468.86265573 -79.03844238 464.94896646 C-81.56948059 462.17549118 -83.80623563 459.30714638 -86.06493926 456.31094642 C-88.71597432 453.55738953 -91.36133035 450.96930892 -94.37743926 448.62344642 C-95.26431426 447.86032142 -96.15118926 447.09719642 -97.06493926 446.31094642 C-97.06493926 445.65094642 -97.06493926 444.99094642 -97.06493926 444.31094642 C-97.59579131 444.10534095 -98.12664337 443.89973549 -98.67358184 443.68789955 C-102.05821435 441.73901467 -104.60343983 439.03743717 -107.32665801 436.27969642 C-107.91791976 435.68797645 -108.50918151 435.09625648 -109.11836028 434.4866056 C-110.36375293 433.23819833 -111.6067207 431.98736794 -112.84740997 430.73428627 C-114.75077204 428.81262967 -116.66205312 426.89913382 -118.57470489 424.98672767 C-119.78416295 423.77235551 -120.99316332 422.5575273 -122.20165801 421.34219642 C-122.77454055 420.76820106 -123.34742309 420.1942057 -123.9376657 419.60281654 C-128.19138089 415.29766198 -129.18835607 413.56996552 -129.20754028 407.57426544 C-129.21384822 406.34557829 -129.22015616 405.11689115 -129.22665525 403.85097106 C-129.22863904 402.47498928 -129.23051598 401.09900734 -129.23229766 399.72302528 C-129.23774181 398.2709446 -129.24360501 396.81886543 -129.24985338 395.36678799 C-129.26573836 391.36200127 -129.27523082 387.35722071 -129.28361822 383.35241218 C-129.29161165 379.9209274 -129.30330442 376.48945929 -129.31503302 373.05798555 C-129.35697907 360.76472329 -129.38415009 348.47144146 -129.40868926 336.17813392 C-129.41066416 335.20824053 -129.41263906 334.23834714 -129.41467381 333.23906304 C-129.45383251 313.98762892 -129.48754738 294.7361884 -129.50975585 275.48472686 C-129.51472533 271.25036766 -129.51976963 267.01600856 -129.5249002 262.78164955 C-129.52617087 261.72919202 -129.52744154 260.67673449 -129.52875072 259.59238431 C-129.55011189 242.5423559 -129.59910667 225.4925202 -129.65914435 208.44258875 C-129.72024987 190.94537677 -129.75494159 173.44826423 -129.76422906 155.95094689 C-129.77014323 146.12375953 -129.78792774 136.29689852 -129.83561492 126.46981712 C-129.87619041 118.10044781 -129.89310332 109.73145807 -129.8789621 101.36199475 C-129.87248933 97.09141674 -129.87738031 92.82164737 -129.91283584 88.55119415 C-129.94504907 84.63984691 -129.94482703 80.7298788 -129.91901881 76.81849644 C-129.91537131 75.40521204 -129.92352236 73.99183644 -129.94480032 72.57870752 C-130.11257876 60.7194207 -130.11257876 60.7194207 -126.01276851 56.09432216 C-125.37632738 55.48915122 -124.73988625 54.88398028 -124.08415902 54.26047083 C-121.81481599 52.0694564 -120.1096678 49.74254768 -118.28788638 47.16893764 C-85.67215028 2.40306731 -53.10975977 -1.56551445 0 0 Z " fill="#FBFBFC" transform="translate(522.0649392642081,376.6890535764396)"/>
<path d="M0 0 C13.2 0 26.4 0 40 0 C40 23.76 40 47.52 40 72 C62.77 72 85.54 72 109 72 C109 48.24 109 24.48 109 0 C127.48 0 145.96 0 165 0 C168.80446602 13.0438835 172.49415406 25.76685456 175.6953125 38.90625 C177.09049616 44.48698462 178.73000341 49.98869729 180.375 55.5 C183.40707452 65.66280328 186.04728923 75.89498344 188.51513672 86.20898438 C190.05490959 92.56136057 191.81890526 98.71665417 194.04614258 104.86425781 C195.35927919 109.18110621 196.17315979 113.56786646 197 118 C199.50454698 109.3663459 202.00862772 100.73255675 204.51215553 92.09860706 C205.67536635 88.08707782 206.83872219 84.07559077 208.00244141 80.06420898 C212.83592233 63.40264928 217.66533156 46.74029634 222.41497803 30.05459595 C223.85056221 25.0128273 225.29544137 19.9738239 226.75 14.9375 C227.04003906 13.92107422 227.33007812 12.90464844 227.62890625 11.85742188 C227.91121094 10.88224609 228.19351563 9.90707031 228.484375 8.90234375 C228.85127441 7.62605103 228.85127441 7.62605103 229.22558594 6.32397461 C230 4 230 4 232 0 C240.91 0 249.82 0 259 0 C260.86186367 5.58559101 262.62863904 11.04725844 264.19140625 16.703125 C264.58266697 18.10937926 264.97394347 19.51562914 265.36523438 20.921875 C265.96719613 23.09613228 266.56820238 25.27065073 267.16870117 27.4453125 C267.75726268 29.5735738 268.34920623 31.70087377 268.94140625 33.828125 C269.28888916 35.0852832 269.63637207 36.34244141 269.99438477 37.63769531 C270.85481776 40.51457883 271.88225076 43.21855326 273 46 C273.2759478 47.92903132 273.48449903 49.8689032 273.625 51.8125 C273.73714844 53.27623047 273.73714844 53.27623047 273.8515625 54.76953125 C273.90054687 55.50558594 273.94953125 56.24164062 274 57 C274.66 57 275.32 57 276 57 C276.14099121 57.54938232 276.28198242 58.09876465 276.42724609 58.66479492 C277.07307317 61.17325921 277.72398903 63.68037629 278.375 66.1875 C278.59671875 67.05181641 278.8184375 67.91613281 279.046875 68.80664062 C280.141694 73.00881355 281.36587218 76.97328841 283 81 C283.51265737 83.09625868 283.98999178 85.20137365 284.4375 87.3125 C285.26636928 91.04241175 286.11287845 94.58880197 287.5625 98.125 C289.50545686 102.91627058 290.16524275 107.92315818 291 113 C291.32669416 114.66798076 291.65801776 116.33508648 292 118 C292.66 118 293.32 118 294 118 C294.11972168 116.86232178 294.23944336 115.72464355 294.36279297 114.55249023 C294.93871786 109.97413201 296.00433978 105.61246342 297.1953125 101.16015625 C297.41968994 100.30454102 297.64406738 99.44892578 297.87524414 98.56738281 C298.62029856 95.73111623 299.372619 92.89683103 300.125 90.0625 C300.65264583 88.05993687 301.17981605 86.05724838 301.70654297 84.05444336 C302.84721925 79.72046992 303.99095855 75.38731961 305.13671875 71.0546875 C306.94751328 64.20415371 308.74805316 57.35094299 310.54657364 50.49717903 C313.34277854 39.84228561 316.14088431 29.1878882 318.9453125 18.53515625 C319.36490234 16.93800781 319.36490234 16.93800781 319.79296875 15.30859375 C320.05480957 14.31480713 320.31665039 13.32102051 320.58642578 12.29711914 C320.81226349 11.43880997 321.0381012 10.58050079 321.27078247 9.69618225 C322.14740689 6.45498314 323.07758144 3.22846497 324 0 C337.53 0 351.06 0 365 0 C363.87388912 9.00888701 363.87388912 9.00888701 362.6953125 13.49609375 C362.44136719 14.46740234 362.18742187 15.43871094 361.92578125 16.43945312 C361.66152344 17.42880859 361.39726563 18.41816406 361.125 19.4375 C360.86847656 20.42298828 360.61195313 21.40847656 360.34765625 22.42382812 C358.97994527 27.60944588 357.47160479 32.70136018 355.73730469 37.77514648 C354.36640658 41.91189963 353.22588355 46.11359678 352.0625 50.3125 C351.77383057 51.34793945 351.48516113 52.38337891 351.18774414 53.45019531 C349.1306703 60.85503414 347.10566758 68.26850025 345.0859375 75.68359375 C344.82809982 76.63007278 344.57026215 77.57655182 344.30461121 78.55171204 C343.01376352 83.29200782 341.72500998 88.03285861 340.43969727 92.7746582 C337.71010673 102.82941344 334.9157298 112.86236063 332.03974915 122.87626648 C330.35081528 128.75858015 328.70866289 134.65090733 327.125 140.5625 C323.56144017 153.74987867 319.76992742 166.87025278 316 180 C302.8 180 289.6 180 276 180 C273.47028503 173.67571258 271.18368545 167.69043816 269.375 161.1875 C267.8744144 155.76486347 267.8744144 155.76486347 265.97265625 150.4765625 C264.4068234 146.4896628 263.55609023 142.31014113 262.58789062 138.14648438 C261.60092163 134.03739034 260.31479801 130.18731117 258.81037903 126.23152161 C257.39598604 122.33674101 256.24679738 118.36583198 255.08203125 114.390625 C254.81992355 113.50139343 254.55781586 112.61216187 254.2877655 111.69598389 C253.73918915 109.83082225 253.19219835 107.9651936 252.64672852 106.09912109 C251.8103391 103.24261993 250.96496815 100.38887495 250.11914062 97.53515625 C249.58538954 95.71630655 249.05216769 93.89730143 248.51953125 92.078125 C248.26645706 91.22704163 248.01338287 90.37595825 247.75263977 89.49908447 C247.52207382 88.7043573 247.29150787 87.90963013 247.05395508 87.09082031 C246.84982498 86.3954718 246.64569489 85.70012329 246.43537903 84.98370361 C246 83 246 83 246 79 C245.34 79 244.68 79 244 79 C243.62875 80.794375 243.62875 80.794375 243.25 82.625 C239.80972093 98.03532223 234.74502558 113.17876856 230.31286621 128.32818604 C225.78586145 143.79583967 225.78586145 143.79583967 221.375 159.296875 C221.18669617 159.96657318 220.99839233 160.63627136 220.80438232 161.32626343 C219.96413424 164.31694098 219.13094396 167.30925166 218.30957031 170.30517578 C217.88562988 171.82087158 217.88562988 171.82087158 217.453125 173.3671875 C217.21754883 174.22425293 216.98197266 175.08131836 216.73925781 175.96435547 C216 178 216 178 214 180 C210.98691049 180.17546482 208.06689546 180.23127445 205.0546875 180.1953125 C203.72716965 180.19106766 203.72716965 180.19106766 202.37283325 180.18673706 C199.54008588 180.1755224 196.70765216 180.1504157 193.875 180.125 C191.95703581 180.11497185 190.03906667 180.10584572 188.12109375 180.09765625 C183.41394124 180.07557889 178.70702384 180.04104045 174 180 C173.59273682 178.52128418 173.59273682 178.52128418 173.17724609 177.01269531 C168.29125659 159.28568025 163.34946445 141.59379419 158 124 C155.69 116.08 153.38 108.16 151 100 C150.67 126.4 150.34 152.8 150 180 C136.47 180 122.94 180 109 180 C109 155.25 109 130.5 109 105 C86.23 105 63.46 105 40 105 C40 129.75 40 154.5 40 180 C26.8 180 13.6 180 0 180 C0 120.6 0 61.2 0 0 Z " fill="#0369FC" transform="translate(452,531)"/>
<path d="M0 0 C10.01625278 0.28714857 20.02872568 0.30914396 30.04845415 0.32392048 C47.92265222 0.35821021 65.78671026 0.61026528 83.65649628 0.99624916 C100.94362587 1.36935208 118.22480174 1.60180498 135.51587128 1.67300697 C136.58586102 1.67743933 137.65585076 1.68187169 138.75826443 1.68643836 C140.91427446 1.69525586 143.07028461 1.70404595 145.22629487 1.71280847 C146.82208935 1.71930607 146.82208935 1.71930607 148.45012211 1.72593494 C149.51154623 1.73019104 150.57297035 1.73444714 151.66655883 1.73883221 C168.24497156 1.80984971 184.8224343 1.99004342 201.39974786 2.18859826 C206.38619379 2.24786292 211.37258544 2.30181104 216.35921049 2.34364768 C226.81309024 2.43173408 237.26367892 2.55646169 247.71513552 2.80480687 C252.02943202 2.90674541 256.34118157 2.98812492 260.65669655 3.00953193 C289.17875555 3.17808729 289.17875555 3.17808729 297.07360667 10.27191569 C299.23947391 12.61555619 301.12745887 15.01782813 302.870103 17.68995913 C304.28593091 19.84501089 305.97086557 21.70008132 307.71631074 23.59219642 C308.23064667 24.1980558 308.74498261 24.80391517 309.27490449 25.42813392 C312.79050324 29.41523651 316.64826039 33.08396914 320.43506074 36.81094642 C325.56536861 41.86020678 330.60105627 46.90548126 335.24951386 52.40664955 C336.92728516 54.45967927 336.92728516 54.45967927 339.49988389 56.05579944 C343.12104389 59.71977138 342.5569341 64.31163592 342.61310196 69.18433883 C342.60367379 70.55542745 342.5937684 71.92651286 342.5834372 73.29759498 C342.59063054 74.75639998 342.59999677 76.21519562 342.61134958 77.67397418 C342.63613328 81.68356541 342.62964423 85.69259188 342.61800217 89.70222052 C342.61081595 94.02617368 342.63231465 98.34999771 342.65005707 102.67390724 C342.68002916 111.14563247 342.68261914 119.61715502 342.67504391 128.08892178 C342.66922287 134.97472124 342.67240651 141.86046009 342.68201661 148.74625488 C342.68403202 150.21549085 342.68403202 150.21549085 342.68608816 151.71440835 C342.68883135 153.70417285 342.69158383 155.69393733 342.6943455 157.68370179 C342.71896035 176.35150405 342.71133749 195.01919133 342.69377544 213.68699453 C342.67867656 230.76596117 342.70286199 247.84460514 342.74580785 264.92351603 C342.78956223 282.45701773 342.80744412 299.99036808 342.79703188 317.52392401 C342.79162417 327.36890847 342.79637356 337.21363386 342.82799744 347.05857559 C342.85461572 355.44073084 342.85669611 363.82245467 342.82713636 372.20460748 C342.81271998 376.48124565 342.80953049 380.75710503 342.83679032 385.03369804 C342.86145606 388.95053458 342.8536854 392.86593095 342.8202894 396.78269045 C342.81386966 398.19787983 342.8192103 399.61318286 342.83763691 401.02826684 C342.98129334 412.89777861 342.98129334 412.89777861 338.58945298 417.99371143 C337.39680243 419.12689243 336.17909698 420.23442966 334.93506074 421.31094642 C333.81234062 422.45141168 332.6959859 423.5982196 331.58935761 424.7543058 C330.44663919 425.89025329 329.30138159 427.02365123 328.15381074 428.15469642 C327.2280423 429.07478492 327.2280423 429.07478492 326.28357148 430.01346107 C323.68247285 432.59844161 321.07536059 435.17732464 318.46875214 437.7567472 C309.08481324 446.9958351 309.08481324 446.9958351 300.25586152 456.75870033 C298.4735339 458.8533471 296.57057986 460.80823499 294.62256074 462.74844642 C293.96642792 463.40715736 293.31029511 464.0658683 292.63427949 464.74454017 C289.49392833 467.6394386 287.19395217 467.44356827 283.01655793 467.46472069 C281.11267619 467.47788279 281.11267619 467.47788279 279.17033219 467.49131079 C277.74856564 467.49605876 276.3267987 467.50069142 274.90503144 467.50522133 C273.40487787 467.5135273 271.90472652 467.52224096 270.40457749 467.53132935 C266.26684172 467.55501036 262.12910027 467.57222433 257.99132871 467.58826156 C254.44592728 467.60277857 250.90054823 467.62095738 247.35516375 467.63909297 C213.74328429 467.8102514 180.13087491 467.89472587 146.51864838 467.9630117 C142.14198991 467.97206047 137.76533182 467.98127007 133.38867402 467.99063392 C132.30085373 467.99295384 131.21303345 467.99527375 130.09224891 467.99766396 C112.47439055 468.03642838 94.85696842 468.11695831 77.23934376 468.21376269 C59.15678573 468.3122991 41.07445412 468.36918737 22.99163365 468.3865902 C12.83664844 468.3974968 2.68245905 468.42726357 -7.47225738 468.50454231 C-16.12203055 468.5703471 -24.77090724 468.59897868 -33.42092568 468.57897477 C-37.83396082 468.56994622 -42.24505708 468.57869798 -46.65777564 468.6356649 C-50.70183197 468.68746678 -54.74261167 468.68803288 -58.78677786 468.64862155 C-60.24589309 468.64329672 -61.7052231 468.65642761 -63.1639539 468.69034021 C-69.29329795 468.82430744 -74.11148813 468.86265573 -79.03844238 464.94896646 C-81.56948059 462.17549118 -83.80623563 459.30714638 -86.06493926 456.31094642 C-88.71597432 453.55738953 -91.36133035 450.96930892 -94.37743926 448.62344642 C-95.26431426 447.86032142 -96.15118926 447.09719642 -97.06493926 446.31094642 C-97.06493926 445.65094642 -97.06493926 444.99094642 -97.06493926 444.31094642 C-97.59579131 444.10534095 -98.12664337 443.89973549 -98.67358184 443.68789955 C-102.05821435 441.73901467 -104.60343983 439.03743717 -107.32665801 436.27969642 C-107.91791976 435.68797645 -108.50918151 435.09625648 -109.11836028 434.4866056 C-110.36375293 433.23819833 -111.6067207 431.98736794 -112.84740997 430.73428627 C-114.75077204 428.81262967 -116.66205312 426.89913382 -118.57470489 424.98672767 C-119.78416295 423.77235551 -120.99316332 422.5575273 -122.20165801 421.34219642 C-122.77454055 420.76820106 -123.34742309 420.1942057 -123.9376657 419.60281654 C-128.19138089 415.29766198 -129.18835607 413.56996552 -129.20754028 407.57426544 C-129.21384822 406.34557829 -129.22015616 405.11689115 -129.22665525 403.85097106 C-129.22863904 402.47498928 -129.23051598 401.09900734 -129.23229766 399.72302528 C-129.23774181 398.2709446 -129.24360501 396.81886543 -129.24985338 395.36678799 C-129.26573836 391.36200127 -129.27523082 387.35722071 -129.28361822 383.35241218 C-129.29161165 379.9209274 -129.30330442 376.48945929 -129.31503302 373.05798555 C-129.35697907 360.76472329 -129.38415009 348.47144146 -129.40868926 336.17813392 C-129.41066416 335.20824053 -129.41263906 334.23834714 -129.41467381 333.23906304 C-129.45383251 313.98762892 -129.48754738 294.7361884 -129.50975585 275.48472686 C-129.51472533 271.25036766 -129.51976963 267.01600856 -129.5249002 262.78164955 C-129.52617087 261.72919202 -129.52744154 260.67673449 -129.52875072 259.59238431 C-129.55011189 242.5423559 -129.59910667 225.4925202 -129.65914435 208.44258875 C-129.72024987 190.94537677 -129.75494159 173.44826423 -129.76422906 155.95094689 C-129.77014323 146.12375953 -129.78792774 136.29689852 -129.83561492 126.46981712 C-129.87619041 118.10044781 -129.89310332 109.73145807 -129.8789621 101.36199475 C-129.87248933 97.09141674 -129.87738031 92.82164737 -129.91283584 88.55119415 C-129.94504907 84.63984691 -129.94482703 80.7298788 -129.91901881 76.81849644 C-129.91537131 75.40521204 -129.92352236 73.99183644 -129.94480032 72.57870752 C-130.11257876 60.7194207 -130.11257876 60.7194207 -126.01276851 56.09432216 C-125.37632738 55.48915122 -124.73988625 54.88398028 -124.08415902 54.26047083 C-121.81481599 52.0694564 -120.1096678 49.74254768 -118.28788638 47.16893764 C-85.67215028 2.40306731 -53.10975977 -1.56551445 0 0 Z M-74.06493926 37.31094642 C-75.24809688 38.38112255 -76.45244974 39.42909064 -77.68993926 40.43594642 C-83.93670502 45.78671143 -89.60921517 51.77841594 -95.39062286 57.62051674 C-101.76494704 64.05618612 -101.76494704 64.05618612 -104.17225039 66.10052355 C-106.56209874 68.89156625 -106.58742275 70.32696915 -106.64092994 73.9667749 C-106.6673951 75.12665904 -106.69386026 76.28654318 -106.72112739 77.48157533 C-106.72993962 78.756819 -106.73875185 80.03206267 -106.74783111 81.34595009 C-106.77105539 82.7139827 -106.79593524 84.08198805 -106.82233012 85.44996317 C-106.88960369 89.21382916 -106.93154233 92.9776163 -106.96897316 96.74188204 C-107.00427276 99.97025498 -107.05427375 103.19833358 -107.10434069 106.42650617 C-107.28340493 117.99955064 -107.40315566 129.5729795 -107.51025176 141.14688392 C-107.51881672 142.06187961 -107.52738168 142.97687529 -107.53620619 143.91959812 C-107.70560985 162.11683323 -107.84991084 180.31422098 -107.94782997 198.51198669 C-107.96974442 202.51447403 -107.99200451 206.51695923 -108.0146463 210.51944252 C-108.0202536 211.51415776 -108.02586091 212.50887301 -108.03163813 213.53373114 C-108.12546716 229.59088454 -108.3368792 245.64427619 -108.59606518 261.69952166 C-108.8605067 278.21826217 -109.00925874 294.73507506 -109.05027545 311.25589998 C-109.07626985 320.51862643 -109.15256071 329.77486481 -109.35910201 339.03547569 C-112.35648537 382.49621693 -112.35648537 382.49621693 -95.2146566 420.19991775 C-85.81982871 429.62698437 -85.81982871 429.62698437 -74.06493926 434.31094642 C-73.7919531 434.90506212 -73.51896693 435.49917782 -73.23770845 436.11129703 C-71.22372309 439.88873399 -68.84976094 442.2756445 -65.06493926 444.31094642 C-60.48064919 445.22511044 -55.95741726 445.20221716 -51.29385162 445.20070167 C-49.88253346 445.22123579 -48.47125034 445.24430722 -47.06001103 445.26968862 C-43.19050886 445.33151595 -39.3215464 445.35594274 -35.45162464 445.37381633 C-31.27374928 445.39936632 -27.09632657 445.45886043 -22.91874481 445.51317116 C-12.830439 445.63634339 -2.74207563 445.70146752 7.3467862 445.75887017 C11.15257938 445.7813721 14.95834311 445.80755424 18.76411145 445.83388379 C35.56326608 445.94994256 52.36242819 446.04885347 69.16191887 446.09903904 C73.27119575 446.11151668 77.38047233 446.12408018 81.48974824 446.13687416 C82.51099406 446.14003891 83.53223989 446.14320366 84.58443255 446.14646431 C101.09366115 446.20051188 117.60007181 446.36023102 134.10805516 446.56457938 C151.08914191 446.77305205 168.06880106 446.88604432 185.05117118 446.9071808 C194.57364364 446.92135943 204.09195795 446.97594758 213.61317277 447.13758941 C221.73104421 447.27511211 229.84378369 447.32493681 237.96269665 447.26556004 C242.0973662 447.23788843 246.2214623 447.24833335 250.35461449 447.37183281 C265.28825772 447.7937428 277.63636593 447.71565507 289.13737423 437.21705539 C294.88850023 431.6564239 299.9496002 425.55247333 304.93506074 419.31094642 C306.169999 417.84738918 307.41417113 416.39151831 308.67179131 414.94740482 C309.2072791 414.32246702 309.74276688 413.69752922 310.29448157 413.05365391 C311.93506074 411.31094642 311.93506074 411.31094642 313.88392609 409.74637099 C316.95039857 407.22040082 318.67717118 405.44312917 319.57576811 401.49812277 C319.85509911 397.91241593 319.89191671 394.39061465 319.85759186 390.79405494 C319.86924638 389.41060506 319.88393064 388.02717797 319.90137297 386.64378895 C319.94024104 382.85151233 319.93553126 379.06036149 319.92342865 375.26795109 C319.9178788 371.17427373 319.95247886 367.08090311 319.98167634 362.98735328 C320.03207253 354.97040003 320.04392134 346.95383581 320.04091294 338.93674141 C320.03877201 332.418083 320.04844385 325.89954678 320.06646371 319.38091369 C320.12205805 298.87514047 320.13652316 278.36974307 320.11985967 257.8639069 C320.10830774 241.69930278 320.15949626 225.5355997 320.23984285 209.37121433 C320.32174522 192.76419704 320.35891615 176.15761232 320.34881502 159.55038895 C320.34399867 150.23044462 320.35714089 140.91135011 320.41777825 131.59158035 C320.46899587 123.65508102 320.47819029 115.71988321 320.43366965 107.78332072 C320.41213332 103.73644991 320.40958781 99.69201451 320.4597342 95.64534279 C321.56574493 77.81324115 321.56574493 77.81324115 314.88114601 62.24591364 C312.41037419 60.02175897 309.65685564 58.21466072 306.93506074 56.31094642 C303.70655504 53.04109284 300.82981709 49.4886097 298.05180114 45.83223178 C291.16924984 36.85231061 284.21429777 28.58667212 272.63157296 26.47167297 C264.61795529 25.62361703 256.62577499 25.68331809 248.57834828 25.85770257 C244.37713857 25.9264012 240.17691462 25.87790867 235.97549653 25.84495826 C227.77469854 25.79871048 219.5780133 25.85803889 211.37778554 25.95448629 C201.81681936 26.06288892 192.25668625 26.0645945 182.69521375 26.06250941 C165.63619157 26.06238175 148.5790592 26.15773748 131.5207541 26.3077726 C114.9853097 26.45312263 98.45137846 26.53082177 81.91528535 26.53335853 C80.89511497 26.53352437 79.87494459 26.53369022 78.82385996 26.53386108 C77.80540972 26.53401725 76.78695948 26.53417342 75.73764711 26.53433432 C56.87312768 26.53760646 38.00922433 26.59997135 19.14494184 26.69232123 C12.48592807 26.72372526 5.82699557 26.73837242 -0.83208061 26.74807068 C-8.94263606 26.76119481 -17.05219348 26.80888208 -25.16226878 26.89917008 C-29.29740204 26.94461883 -33.43133169 26.97618075 -37.56673789 26.96893211 C-41.35535173 26.96281582 -45.1412271 26.99851372 -48.92920379 27.06711077 C-50.94154685 27.0930653 -52.95430814 27.07539851 -54.96672482 27.05597271 C-64.40376454 27.29244186 -68.19381491 30.14883426 -74.06493926 37.31094642 Z " fill="#0E1820" transform="translate(522.0649392642081,376.6890535764396)"/>
<path d="M0 0 C13.2 0 26.4 0 40 0 C40 23.76 40 47.52 40 72 C62.77 72 85.54 72 109 72 C109 48.24 109 24.48 109 0 C113.62 0 118.24 0 123 0 C123.3403125 1.20269531 123.680625 2.40539062 124.03125 3.64453125 C126.51353856 12.38889728 129.01436657 21.12668443 131.625 29.83374023 C132.27467698 32.02792272 132.90768037 34.22708478 133.52734375 36.42993164 C135.26956639 42.54695064 137.14439153 48.48598897 139.50466919 54.39482117 C155.30251533 94.46785843 151.10669634 137.74690119 150 180 C136.47 180 122.94 180 109 180 C109 155.25 109 130.5 109 105 C86.23 105 63.46 105 40 105 C40 129.75 40 154.5 40 180 C26.8 180 13.6 180 0 180 C0 120.6 0 61.2 0 0 Z " fill="#0E1820" transform="translate(452,531)"/>
<path d="M0 0 C5.45917975 0.096197 8.66302497 0.49237373 12.75 4.375 C13.69875 5.2 14.6475 6.025 15.625 6.875 C18.58879177 10.66634401 18.44392556 14.74854054 18.23046875 19.3984375 C17.37473254 24.69982768 15.19438905 28.23995051 11.17578125 31.75 C7.34371459 34.32257622 3.60836974 35.04738778 -0.97265625 34.828125 C-4.99043954 34.02870328 -8.24413532 32.12924252 -11.25 29.375 C-11.64119522 28.53333282 -12.03239044 27.69166565 -12.43544006 26.82449341 C-14.06137504 24.07423233 -14.06137504 24.07423233 -17.26341248 23.68624878 C-18.49962845 23.65814117 -19.73584442 23.63003357 -21.00952148 23.60107422 C-21.69294113 23.57946228 -22.37636078 23.55785034 -23.08049011 23.5355835 C-25.34436559 23.47271392 -27.60644732 23.44840672 -29.87109375 23.4296875 C-31.45232075 23.4059867 -33.03354327 23.38198513 -34.61476135 23.35769653 C-37.93624813 23.31417581 -41.25710935 23.29296325 -44.57885742 23.28369141 C-48.80766091 23.26752278 -53.03001167 23.16850851 -57.25695705 23.04823112 C-60.52857926 22.96949717 -63.79869671 22.95042425 -67.07118416 22.94690323 C-68.62737582 22.9355627 -70.18357941 22.90300812 -71.73882866 22.84768295 C-78.56188416 22.62402588 -84.51415797 22.45988469 -89.8208313 27.22613525 C-92.42821942 29.89722283 -94.76423876 32.73437813 -96.96119785 35.75047493 C-101.30165682 41.22158965 -101.30165682 41.22158965 -105.26826954 41.8632555 C-106.45750869 41.85785094 -107.64674784 41.85244638 -108.87202454 41.84687805 C-109.53612231 41.84944034 -110.20022008 41.85200263 -110.88444203 41.85464257 C-113.10871757 41.85854934 -115.33177462 41.83404219 -117.5559082 41.80981445 C-119.15102943 41.80708876 -120.74615475 41.80621921 -122.34127808 41.80706787 C-125.77628726 41.80546786 -129.21096474 41.79180818 -132.64589882 41.76915932 C-138.079615 41.73451181 -143.5130173 41.73336856 -148.94682312 41.73808289 C-163.42287016 41.7455865 -177.89875344 41.71230829 -192.37467116 41.65165156 C-201.88379471 41.6118477 -211.39248494 41.59192318 -220.90169019 41.61002892 C-226.30102279 41.61872245 -231.6989959 41.5957155 -237.09811938 41.54900134 C-240.46157819 41.52716331 -243.82450993 41.53453745 -247.18798447 41.55001831 C-248.74442881 41.55132217 -250.30093744 41.54067654 -251.85720253 41.51701927 C-260.12226704 41.14814493 -260.12226704 41.14814493 -267.63664818 43.95332909 C-269.50506401 45.78991784 -269.50506401 45.78991784 -270.89818096 47.77502728 C-272.25 49.375 -272.25 49.375 -276.0625 50.375 C-282.08104831 49.9020296 -286.28979811 44.46504457 -290.25 40.375 C-289.6734559 36.97486814 -288.64002339 35.44829515 -286.125 33.125 C-282.24079981 29.4177199 -278.73625398 25.45465892 -275.25 21.375 C-272.09716963 22.58762706 -271.08955984 23.59336355 -269.02703857 26.4005127 C-264.08000217 31.36670747 -256.99641607 30.31387616 -250.44238281 30.34179688 C-248.92388107 30.36959498 -247.40542087 30.3997469 -245.88700867 30.43206787 C-241.76853329 30.5106025 -237.65064381 30.54944371 -233.53153706 30.57613182 C-230.95063088 30.59376704 -228.36988158 30.618406 -225.78905487 30.64515686 C-217.69244116 30.7271878 -209.59618994 30.78518056 -201.49918962 30.80836821 C-192.19287272 30.83517322 -182.89187949 30.94005245 -173.58718038 31.11437178 C-166.37059566 31.24480847 -159.1554938 31.30463233 -151.93774486 31.31261492 C-147.6382467 31.31885924 -143.34375167 31.35326123 -139.04550934 31.46153259 C-119.67780448 32.68114654 -119.67780448 32.68114654 -102.67446899 25.29641724 C-100.34031955 22.90524042 -98.21438226 20.4338721 -96.10619164 17.84250832 C-92.25408367 13.13167674 -89.71960495 10.31984505 -83.54225349 9.45230675 C-79.62189592 9.24755705 -75.78261374 9.38056594 -71.8671875 9.6171875 C-70.1891162 9.65088765 -68.51086407 9.67644948 -66.83255005 9.69436646 C-62.47756601 9.76214045 -58.13391659 9.93792565 -53.7833252 10.13903809 C-49.3193503 10.32537014 -44.85348584 10.40583515 -40.38671875 10.49609375 C-31.6693549 10.68742178 -22.96109773 10.99327936 -14.25 11.375 C-14.13527344 10.76914062 -14.02054688 10.16328125 -13.90234375 9.5390625 C-12.92285585 6.28974335 -10.69904827 4.64484962 -8.25 2.375 C-5.50637988 -0.36862012 -3.82800386 0.04369867 0 0 Z " fill="#096CF9" transform="translate(743.25,752.625)"/>
<path d="M0 0 C4.10488479 2.82780952 7.56757505 6.44765011 9.8125 10.9375 C9.8433477 13.96057414 9.74514591 16.9705491 9.65234375 19.9921875 C9.8151776 22.98674177 10.07955757 24.51464005 11.8125 26.9375 C13.14467794 27.60647247 14.47821835 28.27273334 15.8125 28.9375 C17.59229653 30.73480273 19.26607355 32.54507185 20.9375 34.4375 C21.98579887 35.55683661 23.03422932 36.67604999 24.08276367 37.79516602 C26.67744076 40.59873805 29.00498533 43.49292943 31.28979492 46.55249023 C37.40043677 54.21792159 43.05659189 59.99008858 53.06445312 61.50634766 C60.67527958 62.12367834 68.22535439 61.93161139 75.84484863 61.58148193 C78.73943562 61.47204343 81.63127405 61.45745555 84.52765942 61.4450388 C87.33993585 61.4275459 90.15034663 61.37177977 92.96178627 61.3025341 C94.93288768 61.25505243 96.90435172 61.22346723 98.8757782 61.192276 C106.74710213 60.81696591 106.74710213 60.81696591 113.05834961 56.48535156 C114.00725871 55.32734855 114.93075316 54.14742643 115.8125 52.9375 C116.43898438 52.25042969 117.06546875 51.56335938 117.7109375 50.85546875 C118.19820312 50.28441406 118.68546875 49.71335937 119.1875 49.125 C119.75984375 48.46628906 120.3321875 47.80757813 120.921875 47.12890625 C122.31292057 45.51655797 123.69738351 43.89852471 125.078125 42.27734375 C125.85671875 41.38144531 126.6353125 40.48554688 127.4375 39.5625 C128.15164063 38.72976563 128.86578125 37.89703125 129.6015625 37.0390625 C131.94202563 34.814382 133.80460493 34.00675174 136.8125 32.9375 C137.8025 31.9475 137.8025 31.9475 138.8125 30.9375 C141.55735593 30.79242305 144.19730543 30.75097577 146.9375 30.8125 C147.69160156 30.82152344 148.44570313 30.83054687 149.22265625 30.83984375 C151.08607254 30.8634313 152.94932593 30.89930281 154.8125 30.9375 C153.14583333 32.60416667 151.47916667 34.27083333 149.8125 35.9375 C148.64436768 37.10671997 148.64436768 37.10671997 147.45263672 38.29956055 C144.89281119 40.85725565 142.32615873 43.40789534 139.7578125 45.95703125 C138.31161726 47.39584458 136.86590855 48.83514481 135.42041016 50.2746582 C134.436288 51.25375767 133.45126938 52.23195695 132.46533203 53.20922852 C127.17972469 58.44980311 121.97443783 63.71271089 117.14794922 69.38549805 C112.18881347 75.14879347 104.29453656 74.19367713 97.07911491 74.74437904 C91.47321707 75.14138478 85.8657362 75.41321059 80.25 75.625 C79.43065224 75.6573172 78.61130447 75.6896344 77.76712799 75.72293091 C59.5817053 76.36139452 42.53230683 76.55594909 28.40234375 63.80078125 C20.20078179 56.06568597 13.37382546 47.20147544 6.59292603 38.22721863 C2.62749485 33.09156751 2.62749485 33.09156751 -3.18383789 30.74853516 C-6.92469113 30.70920252 -6.92469113 30.70920252 -10.30932617 31.47314453 C-13.1875 31.9375 -13.1875 31.9375 -15.57250977 30.79980469 C-19.86570989 27.25731855 -22.65289867 23.17783865 -23.5703125 17.6171875 C-23.91502804 12.71623176 -23.38331869 9.53515991 -20.5 5.5 C-14.6042773 -1.2869366 -8.56928893 -2.85642964 0 0 Z " fill="#0B6EFA" transform="translate(636.1875,422.0625)"/>
<path d="M0 0 C5.20213588 1.87413192 8.47983201 5.65107026 10.9140625 10.51953125 C11.67585628 17.23830259 11.17931749 23.08554819 6.9140625 28.51953125 C2.99002954 32.23560855 -0.81728027 33.83021894 -6.2109375 34.08203125 C-12.22521546 33.74995455 -15.47208358 31.30326453 -19.4609375 26.89453125 C-21.0859375 24.51953125 -21.0859375 24.51953125 -21.0859375 22.51953125 C-36.06433442 22.29868514 -51.04166539 22.16545855 -66.02165985 22.1335001 C-72.9791862 22.11666471 -79.93440844 22.07231623 -86.89111328 21.96069336 C-93.61588429 21.85287231 -100.33680255 21.82504488 -107.06260681 21.8441906 C-109.6173762 21.83873823 -112.17223744 21.80728352 -114.72633362 21.74838448 C-131.43845254 21.2249632 -131.43845254 21.2249632 -145.64694977 29.0034399 C-148.67745568 32.0127555 -151.48325993 35.13331384 -154.0859375 38.51953125 C-154.7459375 38.18953125 -155.4059375 37.85953125 -156.0859375 37.51953125 C-157.30672958 25.44725402 -157.30672958 25.44725402 -154.48046875 20.984375 C-152.440542 18.99802982 -150.32971292 17.26991103 -148.0859375 15.51953125 C-147.45746414 14.67022537 -146.82899078 13.82091949 -146.18147278 12.94587708 C-141.47856769 9.2596409 -137.13323704 9.85881915 -131.3190918 9.9519043 C-130.12842606 9.95117416 -128.93776031 9.95044403 -127.71101379 9.94969177 C-124.45478348 9.95257411 -121.19963389 9.97761081 -117.94361854 10.01256156 C-114.53772177 10.0438633 -111.13180271 10.04675876 -107.7257843 10.0526886 C-101.28004073 10.068216 -94.83472226 10.10922892 -88.3891657 10.15943605 C-81.04946722 10.21536436 -73.70974821 10.24282468 -66.36988962 10.26791322 C-51.27500224 10.32014622 -36.18051243 10.40806643 -21.0859375 10.51953125 C-20.87686768 9.33774292 -20.87686768 9.33774292 -20.66357422 8.13208008 C-19.84510052 4.43026815 -18.21028495 3.00486419 -15.3125 0.69140625 C-10.49134865 -1.84604183 -5.1660069 -1.18992294 0 0 Z " fill="#0D6FFA" transform="translate(608.0859375,728.48046875)"/>
<path d="M0 0 C4.90113459 2.32609404 8.91676399 5.92211222 11 11 C11.03926254 12.66620414 11.04435478 14.33392364 11 16 C11.80518066 15.99476318 12.61036133 15.98952637 13.43994141 15.98413086 C16.5003227 15.96682943 19.56067863 15.95442628 22.62109375 15.94506836 C24.56772545 15.93771631 26.51433456 15.92499422 28.4609375 15.91210938 C37.03115367 15.89024658 45.46257506 16.26692198 54 17 C54.29205322 16.38125 54.58410645 15.7625 54.88500977 15.125 C56.22151171 12.57783274 57.85911307 10.98162776 59.9375 9 C62.92278384 6.16450366 62.92278384 6.16450366 65.25390625 2.80859375 C67.52926886 0.45178639 69.55358754 0.28955036 72.75219727 0.08984375 C73.49397217 0.08082031 74.23574707 0.07179688 75 0.0625 C76.13489868 0.04703125 76.13489868 0.04703125 77.29272461 0.03125 C83.27659514 0.28563922 86.53447188 2.14336239 90.5625 6.5 C92.12871691 8.28897877 93.56949541 10.09678007 95 12 C94.34 13.32 93.68 14.64 93 16 C91.35425434 16.02688151 89.70838587 16.04634123 88.0625 16.0625 C86.68771484 16.07990234 86.68771484 16.07990234 85.28515625 16.09765625 C83 16 83 16 82 15 C78.4322033 14.02362765 75.56982591 14.02193279 72 15 C70.53233412 16.94830293 69.14767083 18.95997326 67.81640625 21.00390625 C65.10205482 24.43652265 62.61167371 26.61281248 58.2923584 27.65048218 C50.31544183 28.52986938 42.31164624 28.09114243 34.3125 27.75 C31.85755233 27.68973998 29.40246262 27.63499892 26.94726562 27.5859375 C20.96172063 27.45437515 14.98152563 27.25419983 9 27 C8.72027344 27.77859375 8.44054687 28.5571875 8.15234375 29.359375 C6.70850113 32.66797707 4.9537286 33.98281949 2 36 C-3.07889169 37.6929639 -8.41665094 38.29167453 -13.328125 35.8359375 C-17.20842456 33.03349893 -19.92768726 30.37829873 -22 26 C-22.39560159 23.27952243 -22.61832729 20.90551893 -22.625 18.1875 C-22.62733643 17.47770996 -22.62967285 16.76791992 -22.63208008 16.03662109 C-22.43371984 10.29669537 -20.95216844 7.24248873 -16.82421875 3.3828125 C-11.32716818 -0.78411663 -6.76054352 -0.98412975 0 0 Z " fill="#0A6CFA" transform="translate(715,424)"/>
<path d="M0 0 C-0.34757511 4.25779506 -0.86412424 7.07335993 -3.1875 10.6875 C-5.31805237 13.69868376 -5.31805237 13.69868376 -4.5 16.0625 C-3.33076467 17.5727623 -2.11199212 19.04471516 -0.875 20.5 C1.87167712 25.62713063 1.90026481 30.300866 1 36 C-0.82495195 40.03300449 -3.30352873 42.53568582 -7 45 C-7.99 45 -8.98 45 -10 45 C-10 45.66 -10 46.32 -10 47 C-15.7575987 47.34545592 -20.08040341 47.38905543 -25 44 C-29.42378342 39.60736999 -32.10222653 36.09530738 -32.3125 29.6875 C-32.34988281 28.94886719 -32.38726563 28.21023438 -32.42578125 27.44921875 C-31.33148603 21.15451137 -26.19307267 17.07460736 -21.625 13.0625 C-18.01046346 9.82606564 -14.5419074 6.67340269 -11.5 2.875 C-7.83256557 -1.3425496 -4.96939395 -3.3129293 0 0 Z " fill="#0A6BF9" transform="translate(816,457)"/>
<path d="M0 0 C2.3125 -0.328125 2.3125 -0.328125 5 -0.25 C6.3303125 -0.22679687 6.3303125 -0.22679687 7.6875 -0.203125 C10 0 10 0 12 1 C12 19.15 12 37.3 12 56 C7.38 56 2.76 56 -2 56 C-2.04936398 48.50692715 -2.08570259 41.01394854 -2.10986328 33.52075195 C-2.11993328 30.97060498 -2.13359004 28.42046958 -2.15087891 25.87036133 C-2.17508312 22.2091181 -2.18647305 18.54802726 -2.1953125 14.88671875 C-2.20563507 13.7428923 -2.21595764 12.59906586 -2.22659302 11.420578 C-2.22681961 9.82926811 -2.22681961 9.82926811 -2.22705078 8.20581055 C-2.231492 7.27093307 -2.23593323 6.3360556 -2.24050903 5.37284851 C-2 3 -2 3 0 0 Z " fill="#1E262E" transform="translate(682,314)"/>
<path d="M0 0 C0.90492188 0.02320313 1.80984375 0.04640625 2.7421875 0.0703125 C4.10730469 0.09738281 4.10730469 0.09738281 5.5 0.125 C6.19867187 0.14820313 6.89734375 0.17140625 7.6171875 0.1953125 C7.6171875 0.8553125 7.6171875 1.5153125 7.6171875 2.1953125 C8.2771875 2.1953125 8.9371875 2.1953125 9.6171875 2.1953125 C9.6171875 20.0153125 9.6171875 37.8353125 9.6171875 56.1953125 C4.9971875 56.1953125 0.3771875 56.1953125 -4.3828125 56.1953125 C-4.4321331 48.54151355 -4.46849431 40.88780646 -4.49267578 33.23388672 C-4.50275314 30.62840159 -4.5164152 28.02292781 -4.53369141 25.41748047 C-4.55786352 21.67933351 -4.5692781 17.94133565 -4.578125 14.203125 C-4.58844757 13.03226349 -4.59877014 11.86140198 -4.60940552 10.65505981 C-4.60955658 9.57409027 -4.60970764 8.49312073 -4.60986328 7.37939453 C-4.6143045 6.42453156 -4.61874573 5.46966858 -4.62332153 4.48587036 C-4.27675732 1.18526508 -3.29654188 0.27020835 0 0 Z " fill="#1E272F" transform="translate(516.3828125,313.8046875)"/>
<path d="M0 0 C1.56139206 0.0001133 1.56139206 0.0001133 3.15432739 0.00022888 C4.28144135 0.00539017 5.4085553 0.01055145 6.56982422 0.01586914 C7.72118866 0.01728409 8.8725531 0.01869904 10.05880737 0.02015686 C13.74740158 0.02576823 17.43593576 0.03832269 21.12451172 0.05102539 C23.62060459 0.05603892 26.11669842 0.06060208 28.61279297 0.06469727 C34.74172245 0.07574137 40.8706069 0.09301366 46.99951172 0.11352539 C46.99951172 4.73352539 46.99951172 9.35352539 46.99951172 14.11352539 C39.63054387 14.16284914 32.26167146 14.19920868 24.89257812 14.22338867 C22.38409757 14.2334655 19.8756288 14.24712718 17.3671875 14.2644043 C13.76803684 14.28857876 10.16904105 14.29999151 6.56982422 14.30883789 C5.44271027 14.31916046 4.31559631 14.32948303 3.15432739 14.34011841 C2.11339935 14.34026947 1.07247131 14.34042053 0 14.34057617 C-0.91933319 14.3450174 -1.83866638 14.34945862 -2.78585815 14.35403442 C-5.00048828 14.11352539 -5.00048828 14.11352539 -7.00048828 12.11352539 C-7.19580078 9.51196289 -7.19580078 9.51196289 -7.12548828 6.48852539 C-7.10744141 5.48563477 -7.08939453 4.48274414 -7.07080078 3.44946289 C-7.04759766 2.67860352 -7.02439453 1.90774414 -7.00048828 1.11352539 C-4.49499383 -0.13922184 -2.80313196 -0.00677085 0 0 Z " fill="#172128" transform="translate(334.00048828125,610.886474609375)"/>
<path d="M0 0 C7.2265322 -0.05058332 14.45301899 -0.08568412 21.6796875 -0.10986328 C24.13966579 -0.11993983 26.59963206 -0.13360131 29.05957031 -0.15087891 C32.58922285 -0.17505461 36.11871747 -0.1864664 39.6484375 -0.1953125 C40.75367767 -0.20563507 41.85891785 -0.21595764 42.99765015 -0.22659302 C44.01855743 -0.22674408 45.03946472 -0.22689514 46.09130859 -0.22705078 C46.99287689 -0.231492 47.89444519 -0.23593323 48.82333374 -0.24050903 C51 0 51 0 53 2 C53.265625 4.3125 53.265625 4.3125 53.25 7 C53.25773438 8.3303125 53.25773438 8.3303125 53.265625 9.6875 C53 12 53 12 51 14 C48.86802673 14.24723816 48.86802673 14.24723816 46.19897461 14.24291992 C45.20131577 14.24599655 44.20365692 14.24907318 43.17576599 14.25224304 C42.09553665 14.24505753 41.01530731 14.23787201 39.90234375 14.23046875 C38.24544273 14.22978142 38.24544273 14.22978142 36.55506897 14.2290802 C34.21728442 14.22605547 31.87950192 14.21816264 29.54174805 14.20581055 C25.94898397 14.18755834 22.35647746 14.18530078 18.76367188 14.18554688 C16.49739359 14.18063174 14.23111706 14.17480344 11.96484375 14.16796875 C10.88259018 14.16685593 9.80033661 14.1657431 8.68528748 14.16459656 C7.69078079 14.15821671 6.69627411 14.15183685 5.67163086 14.14526367 C4.79163925 14.14145187 3.91164764 14.13764008 3.00498962 14.13371277 C1 14 1 14 0 13 C-0.07258946 10.81360547 -0.08373783 8.62499611 -0.0625 6.4375 C-0.05347656 5.23996094 -0.04445313 4.04242187 -0.03515625 2.80859375 C-0.02355469 1.88175781 -0.01195312 0.95492187 0 0 Z " fill="#19222A" transform="translate(875,611)"/>
<path d="M0 0 C4.62 0 9.24 0 14 0 C14.04932714 7.08413671 14.08568489 14.16817413 14.10986328 21.25244141 C14.11993954 23.66391744 14.13360081 26.07538122 14.15087891 28.48681641 C14.1750559 31.94697085 14.18646669 35.4069642 14.1953125 38.8671875 C14.20563507 39.95055389 14.21595764 41.03392029 14.22659302 42.15011597 C14.22674408 43.1510025 14.22689514 44.15188904 14.22705078 45.18310547 C14.231492 46.06690887 14.23593323 46.95071228 14.24050903 47.86129761 C14 50 14 50 12 52 C9.43359375 52.23046875 9.43359375 52.23046875 6.4375 52.1875 C5.44621094 52.18105469 4.45492187 52.17460938 3.43359375 52.16796875 C1 52 1 52 0 51 C-0.09333705 49.40389018 -0.11745372 47.80366572 -0.11352539 46.20483398 C-0.11344986 45.18385117 -0.11337433 44.16286835 -0.11329651 43.11094666 C-0.10813522 42.0005452 -0.10297394 40.89014374 -0.09765625 39.74609375 C-0.0962413 38.61551041 -0.09482635 37.48492706 -0.09336853 36.32008362 C-0.08775019 32.69252935 -0.07519458 29.06503576 -0.0625 25.4375 C-0.05748736 22.98502693 -0.05292405 20.5325529 -0.04882812 18.08007812 C-0.0377748 12.05336187 -0.02049788 6.02669124 0 0 Z " fill="#0F1A23" transform="translate(511,855)"/>
<path d="M0 0 C1.62463842 -0.05395478 3.24978541 -0.09277195 4.875 -0.125 C5.77992188 -0.14820313 6.68484375 -0.17140625 7.6171875 -0.1953125 C10 0 10 0 12 2 C12.24050903 4.29055786 12.24050903 4.29055786 12.22705078 7.18408203 C12.22682419 8.80553635 12.22682419 8.80553635 12.22659302 10.45974731 C12.21627045 11.63060883 12.20594788 12.80147034 12.1953125 14.0078125 C12.1924826 15.20356903 12.18965271 16.39932556 12.18673706 17.63131714 C12.17551305 21.46264519 12.15040431 25.29374222 12.125 29.125 C12.11497308 31.71744455 12.10584673 34.30989275 12.09765625 36.90234375 C12.07556643 43.26831862 12.04102133 49.6341201 12 56 C7.71 56 3.42 56 -1 56 C-1.02466033 48.34619382 -1.04284104 40.6924106 -1.05493164 33.03857422 C-1.0599703 30.43310137 -1.0668013 27.82763137 -1.07543945 25.22216797 C-1.08752544 21.48404236 -1.09323288 17.74595403 -1.09765625 14.0078125 C-1.10281754 12.83695099 -1.10797882 11.66608948 -1.11329651 10.45974731 C-1.11337204 9.37877777 -1.11344757 8.29780823 -1.11352539 7.18408203 C-1.115746 6.22921906 -1.11796661 5.27435608 -1.12025452 4.29055786 C-1 2 -1 2 0 0 Z " fill="#141D26" transform="translate(626,314)"/>
<path d="M0 0 C1.62463842 -0.05395478 3.24978541 -0.09277195 4.875 -0.125 C5.77992188 -0.14820313 6.68484375 -0.17140625 7.6171875 -0.1953125 C10 0 10 0 12 2 C12.24050903 4.29055786 12.24050903 4.29055786 12.22705078 7.18408203 C12.22682419 8.80553635 12.22682419 8.80553635 12.22659302 10.45974731 C12.21627045 11.63060883 12.20594788 12.80147034 12.1953125 14.0078125 C12.1924826 15.20356903 12.18965271 16.39932556 12.18673706 17.63131714 C12.17551305 21.46264519 12.15040431 25.29374222 12.125 29.125 C12.11497308 31.71744455 12.10584673 34.30989275 12.09765625 36.90234375 C12.07556643 43.26831862 12.04102133 49.6341201 12 56 C7.71 56 3.42 56 -1 56 C-1.02466033 48.34619382 -1.04284104 40.6924106 -1.05493164 33.03857422 C-1.0599703 30.43310137 -1.0668013 27.82763137 -1.07543945 25.22216797 C-1.08752544 21.48404236 -1.09323288 17.74595403 -1.09765625 14.0078125 C-1.10281754 12.83695099 -1.10797882 11.66608948 -1.11329651 10.45974731 C-1.11337204 9.37877777 -1.11344757 8.29780823 -1.11352539 7.18408203 C-1.115746 6.22921906 -1.11796661 5.27435608 -1.12025452 4.29055786 C-1 2 -1 2 0 0 Z " fill="#0F1921" transform="translate(569,314)"/>
<path d="M0 0 C1.19109375 0.00773437 1.19109375 0.00773437 2.40625 0.015625 C3.2003125 0.01046875 3.994375 0.0053125 4.8125 0 C6.90625 0.265625 6.90625 0.265625 8.90625 2.265625 C9.14675903 4.55618286 9.14675903 4.55618286 9.13330078 7.44970703 C9.13307419 9.07116135 9.13307419 9.07116135 9.13284302 10.72537231 C9.12252045 11.89623383 9.11219788 13.06709534 9.1015625 14.2734375 C9.0987326 15.46919403 9.09590271 16.66495056 9.09298706 17.89694214 C9.08176305 21.72827019 9.05665431 25.55936722 9.03125 29.390625 C9.02122308 31.98306955 9.01209673 34.57551775 9.00390625 37.16796875 C8.98181643 43.53394362 8.94727133 49.8997451 8.90625 56.265625 C4.61625 56.265625 0.32625 56.265625 -4.09375 56.265625 C-4.1430706 48.61182605 -4.17943181 40.95811896 -4.20361328 33.30419922 C-4.21369064 30.69871409 -4.2273527 28.09324031 -4.24462891 25.48779297 C-4.26880102 21.74964601 -4.2802156 18.01164815 -4.2890625 14.2734375 C-4.29938507 13.10257599 -4.30970764 11.93171448 -4.32034302 10.72537231 C-4.32049408 9.64440277 -4.32064514 8.56343323 -4.32080078 7.44970703 C-4.325242 6.49484406 -4.32968323 5.53998108 -4.33425903 4.55618286 C-4.0093926 1.46222269 -3.12195275 0.39606863 0 0 Z " fill="#0C1620" transform="translate(740.09375,313.734375)"/>
<path d="M0 0 C1.40897804 0.00333092 1.40897804 0.00333092 2.84642029 0.00672913 C3.90744461 0.00680466 4.96846893 0.00688019 6.06164551 0.00695801 C7.21579453 0.01211929 8.36994354 0.01728058 9.55906677 0.02259827 C10.73404221 0.02401321 11.90901764 0.02542816 13.11959839 0.02688599 C16.88981116 0.0325046 20.65996556 0.04506026 24.43016052 0.05775452 C26.97898779 0.06276712 29.52781599 0.06733044 32.0766449 0.07142639 C38.34033943 0.08248008 44.60399006 0.09975718 50.86766052 0.12025452 C50.86766052 4.41025452 50.86766052 8.70025452 50.86766052 13.12025452 C43.3379592 13.14489483 35.80828113 13.16308593 28.27854919 13.17518616 C25.71474296 13.18022822 23.15093961 13.18706166 20.58714294 13.19569397 C16.91111031 13.20776516 13.23511554 13.21348394 9.55906677 13.21791077 C8.40491776 13.22307205 7.25076874 13.22823334 6.06164551 13.23355103 C5.00062119 13.23362656 3.93959686 13.23370209 2.84642029 13.23377991 C1.43744225 13.23711082 1.43744225 13.23711082 0 13.24050903 C-2.13233948 13.12025452 -2.13233948 13.12025452 -3.13233948 12.12025452 C-3.23085119 10.28909569 -3.26206577 8.45405518 -3.25733948 6.62025452 C-3.2599176 5.61994202 -3.26249573 4.61962952 -3.26515198 3.58900452 C-3.08142147 0.17377854 -3.08142147 0.17377854 0 0 Z " fill="#0F1821" transform="translate(330.13233947753906,556.8797454833984)"/>
<path d="M0 0 C0.9215538 0.00222061 1.8431076 0.00444122 2.79258728 0.00672913 C3.83359085 0.00680466 4.87459442 0.00688019 5.94714355 0.00695801 C7.07941879 0.01211929 8.21169403 0.01728058 9.37828064 0.02259827 C10.53106003 0.02401321 11.68383942 0.02542816 12.87155151 0.02688599 C16.57043503 0.03250446 20.26925903 0.0450601 23.96812439 0.05775452 C26.46877456 0.06276714 28.96942567 0.06733045 31.47007751 0.07142639 C37.6152829 0.0824799 43.76044354 0.09975692 49.90562439 0.12025452 C49.90562439 4.41025452 49.90562439 8.70025452 49.90562439 13.12025452 C42.51833848 13.14489523 35.13107627 13.16308612 27.74375916 13.17518616 C25.22845544 13.18022815 22.71315467 13.18706154 20.19786072 13.19569397 C16.59132664 13.20776546 12.98483116 13.213484 9.37828064 13.21791077 C7.67986778 13.22565269 7.67986778 13.22565269 5.94714355 13.23355103 C4.90613998 13.23362656 3.86513641 13.23370209 2.79258728 13.23377991 C1.87103348 13.23600052 0.94947968 13.23822113 0 13.24050903 C-2.09437561 13.12025452 -2.09437561 13.12025452 -3.09437561 12.12025452 C-3.19288732 10.28909569 -3.2241019 8.45405518 -3.21937561 6.62025452 C-3.22195374 5.61994202 -3.22453186 4.61962952 -3.22718811 3.58900452 C-3.04350996 0.17475176 -3.04350996 0.17475176 0 0 Z " fill="#0E1720" transform="translate(330.09437561035156,718.8797454833984)"/>
<path d="M0 0 C0.9215538 0.00222061 1.8431076 0.00444122 2.79258728 0.00672913 C3.83359085 0.00680466 4.87459442 0.00688019 5.94714355 0.00695801 C7.07941879 0.01211929 8.21169403 0.01728058 9.37828064 0.02259827 C10.53106003 0.02401321 11.68383942 0.02542816 12.87155151 0.02688599 C16.57043503 0.03250446 20.26925903 0.0450601 23.96812439 0.05775452 C26.46877456 0.06276714 28.96942567 0.06733045 31.47007751 0.07142639 C37.6152829 0.0824799 43.76044354 0.09975692 49.90562439 0.12025452 C49.90562439 4.41025452 49.90562439 8.70025452 49.90562439 13.12025452 C42.51833848 13.14489523 35.13107627 13.16308612 27.74375916 13.17518616 C25.22845544 13.18022815 22.71315467 13.18706154 20.19786072 13.19569397 C16.59132664 13.20776546 12.98483116 13.213484 9.37828064 13.21791077 C7.67986778 13.22565269 7.67986778 13.22565269 5.94714355 13.23355103 C4.90613998 13.23362656 3.86513641 13.23370209 2.79258728 13.23377991 C1.87103348 13.23600052 0.94947968 13.23822113 0 13.24050903 C-2.09437561 13.12025452 -2.09437561 13.12025452 -3.09437561 12.12025452 C-3.19288732 10.28909569 -3.2241019 8.45405518 -3.21937561 6.62025452 C-3.22195374 5.61994202 -3.22453186 4.61962952 -3.22718811 3.58900452 C-3.04350996 0.17475176 -3.04350996 0.17475176 0 0 Z " fill="#0D1720" transform="translate(330.09437561035156,664.8797454833984)"/>
<path d="M0 0 C0.9215538 0.00222061 1.8431076 0.00444122 2.79258728 0.00672913 C3.83359085 0.00680466 4.87459442 0.00688019 5.94714355 0.00695801 C7.07941879 0.01211929 8.21169403 0.01728058 9.37828064 0.02259827 C10.53106003 0.02401321 11.68383942 0.02542816 12.87155151 0.02688599 C16.57043503 0.03250446 20.26925903 0.0450601 23.96812439 0.05775452 C26.46877456 0.06276714 28.96942567 0.06733045 31.47007751 0.07142639 C37.6152829 0.0824799 43.76044354 0.09975692 49.90562439 0.12025452 C49.90562439 4.41025452 49.90562439 8.70025452 49.90562439 13.12025452 C42.51833848 13.14489523 35.13107627 13.16308612 27.74375916 13.17518616 C25.22845544 13.18022815 22.71315467 13.18706154 20.19786072 13.19569397 C16.59132664 13.20776546 12.98483116 13.213484 9.37828064 13.21791077 C7.67986778 13.22565269 7.67986778 13.22565269 5.94714355 13.23355103 C4.90613998 13.23362656 3.86513641 13.23370209 2.79258728 13.23377991 C1.87103348 13.23600052 0.94947968 13.23822113 0 13.24050903 C-2.09437561 13.12025452 -2.09437561 13.12025452 -3.09437561 12.12025452 C-3.19288732 10.28909569 -3.2241019 8.45405518 -3.21937561 6.62025452 C-3.22195374 5.61994202 -3.22453186 4.61962952 -3.22718811 3.58900452 C-3.04350996 0.17475176 -3.04350996 0.17475176 0 0 Z " fill="#0E1720" transform="translate(330.09437561035156,502.87974548339844)"/>
<path d="M0 0 C4.29 0 8.58 0 13 0 C13.02464113 7.24487049 13.0428318 14.48971682 13.05493164 21.73461914 C13.05997356 24.20142033 13.06680691 26.66821852 13.07543945 29.13500977 C13.08751125 32.67204529 13.09322956 36.20904145 13.09765625 39.74609375 C13.10281754 40.85649521 13.10797882 41.96689667 13.11329651 43.11094666 C13.11337204 44.13192947 13.11344757 45.15291229 13.11352539 46.20483398 C13.115746 47.10862289 13.11796661 48.0124118 13.12025452 48.94358826 C13 51 13 51 12 52 C10.16884117 52.09851171 8.33380067 52.12972629 6.5 52.125 C5.4996875 52.12757813 4.499375 52.13015625 3.46875 52.1328125 C1 52 1 52 0 51 C-0.09333705 49.40389018 -0.11745372 47.80366572 -0.11352539 46.20483398 C-0.11344986 45.18385117 -0.11337433 44.16286835 -0.11329651 43.11094666 C-0.10813522 42.0005452 -0.10297394 40.89014374 -0.09765625 39.74609375 C-0.0962413 38.61551041 -0.09482635 37.48492706 -0.09336853 36.32008362 C-0.08775019 32.69252935 -0.07519458 29.06503576 -0.0625 25.4375 C-0.05748736 22.98502693 -0.05292405 20.5325529 -0.04882812 18.08007812 C-0.0377748 12.05336187 -0.02049788 6.02669124 0 0 Z " fill="#161F28" transform="translate(735,855)"/>
<path d="M0 0 C4.29 0 8.58 0 13 0 C13.02464113 7.24487049 13.0428318 14.48971682 13.05493164 21.73461914 C13.05997356 24.20142033 13.06680691 26.66821852 13.07543945 29.13500977 C13.08751125 32.67204529 13.09322956 36.20904145 13.09765625 39.74609375 C13.10281754 40.85649521 13.10797882 41.96689667 13.11329651 43.11094666 C13.11337204 44.13192947 13.11344757 45.15291229 13.11352539 46.20483398 C13.115746 47.10862289 13.11796661 48.0124118 13.12025452 48.94358826 C13 51 13 51 12 52 C10.16884117 52.09851171 8.33380067 52.12972629 6.5 52.125 C5.4996875 52.12757813 4.499375 52.13015625 3.46875 52.1328125 C1 52 1 52 0 51 C-0.09333705 49.40389018 -0.11745372 47.80366572 -0.11352539 46.20483398 C-0.11344986 45.18385117 -0.11337433 44.16286835 -0.11329651 43.11094666 C-0.10813522 42.0005452 -0.10297394 40.89014374 -0.09765625 39.74609375 C-0.0962413 38.61551041 -0.09482635 37.48492706 -0.09336853 36.32008362 C-0.08775019 32.69252935 -0.07519458 29.06503576 -0.0625 25.4375 C-0.05748736 22.98502693 -0.05292405 20.5325529 -0.04882812 18.08007812 C-0.0377748 12.05336187 -0.02049788 6.02669124 0 0 Z " fill="#0F1921" transform="translate(567,855)"/>
<path d="M0 0 C7.24487049 -0.02464113 14.48971682 -0.0428318 21.73461914 -0.05493164 C24.20142033 -0.05997356 26.66821852 -0.06680691 29.13500977 -0.07543945 C32.67204529 -0.08751125 36.20904145 -0.09322956 39.74609375 -0.09765625 C40.85649521 -0.10281754 41.96689667 -0.10797882 43.11094666 -0.11329651 C44.64242088 -0.11340981 44.64242088 -0.11340981 46.20483398 -0.11352539 C47.10862289 -0.115746 48.0124118 -0.11796661 48.94358826 -0.12025452 C51 0 51 0 52 1 C52.09851171 2.83115883 52.12972629 4.66619933 52.125 6.5 C52.12886719 8.00046875 52.12886719 8.00046875 52.1328125 9.53125 C52 12 52 12 51 13 C49.40389018 13.09333705 47.80366572 13.11745372 46.20483398 13.11352539 C45.18385117 13.11344986 44.16286835 13.11337433 43.11094666 13.11329651 C42.0005452 13.10813522 40.89014374 13.10297394 39.74609375 13.09765625 C38.61551041 13.0962413 37.48492706 13.09482635 36.32008362 13.09336853 C32.69252935 13.08775019 29.06503576 13.07519458 25.4375 13.0625 C22.98502693 13.05748736 20.5325529 13.05292405 18.08007812 13.04882812 C12.05336187 13.0377748 6.02669124 13.02049788 0 13 C0 8.71 0 4.42 0 0 Z " fill="#0E1820" transform="translate(876,719)"/>
<path d="M0 0 C7.24487049 -0.02464113 14.48971682 -0.0428318 21.73461914 -0.05493164 C24.20142033 -0.05997356 26.66821852 -0.06680691 29.13500977 -0.07543945 C32.67204529 -0.08751125 36.20904145 -0.09322956 39.74609375 -0.09765625 C40.85649521 -0.10281754 41.96689667 -0.10797882 43.11094666 -0.11329651 C44.64242088 -0.11340981 44.64242088 -0.11340981 46.20483398 -0.11352539 C47.10862289 -0.115746 48.0124118 -0.11796661 48.94358826 -0.12025452 C51 0 51 0 52 1 C52.09851171 2.83115883 52.12972629 4.66619933 52.125 6.5 C52.12886719 8.00046875 52.12886719 8.00046875 52.1328125 9.53125 C52 12 52 12 51 13 C49.40389018 13.09333705 47.80366572 13.11745372 46.20483398 13.11352539 C45.18385117 13.11344986 44.16286835 13.11337433 43.11094666 13.11329651 C42.0005452 13.10813522 40.89014374 13.10297394 39.74609375 13.09765625 C38.61551041 13.0962413 37.48492706 13.09482635 36.32008362 13.09336853 C32.69252935 13.08775019 29.06503576 13.07519458 25.4375 13.0625 C22.98502693 13.05748736 20.5325529 13.05292405 18.08007812 13.04882812 C12.05336187 13.0377748 6.02669124 13.02049788 0 13 C0 8.71 0 4.42 0 0 Z " fill="#0D161E" transform="translate(876,665)"/>
<path d="M0 0 C7.24487049 -0.02464113 14.48971682 -0.0428318 21.73461914 -0.05493164 C24.20142033 -0.05997356 26.66821852 -0.06680691 29.13500977 -0.07543945 C32.67204529 -0.08751125 36.20904145 -0.09322956 39.74609375 -0.09765625 C40.85649521 -0.10281754 41.96689667 -0.10797882 43.11094666 -0.11329651 C44.64242088 -0.11340981 44.64242088 -0.11340981 46.20483398 -0.11352539 C47.10862289 -0.115746 48.0124118 -0.11796661 48.94358826 -0.12025452 C51 0 51 0 52 1 C52.09851171 2.83115883 52.12972629 4.66619933 52.125 6.5 C52.12886719 8.00046875 52.12886719 8.00046875 52.1328125 9.53125 C52 12 52 12 51 13 C49.40389018 13.09333705 47.80366572 13.11745372 46.20483398 13.11352539 C45.18385117 13.11344986 44.16286835 13.11337433 43.11094666 13.11329651 C42.0005452 13.10813522 40.89014374 13.10297394 39.74609375 13.09765625 C38.61551041 13.0962413 37.48492706 13.09482635 36.32008362 13.09336853 C32.69252935 13.08775019 29.06503576 13.07519458 25.4375 13.0625 C22.98502693 13.05748736 20.5325529 13.05292405 18.08007812 13.04882812 C12.05336187 13.0377748 6.02669124 13.02049788 0 13 C0 8.71 0 4.42 0 0 Z " fill="#0D161F" transform="translate(876,557)"/>
<path d="M0 0 C7.24487049 -0.02464113 14.48971682 -0.0428318 21.73461914 -0.05493164 C24.20142033 -0.05997356 26.66821852 -0.06680691 29.13500977 -0.07543945 C32.67204529 -0.08751125 36.20904145 -0.09322956 39.74609375 -0.09765625 C40.85649521 -0.10281754 41.96689667 -0.10797882 43.11094666 -0.11329651 C44.64242088 -0.11340981 44.64242088 -0.11340981 46.20483398 -0.11352539 C47.10862289 -0.115746 48.0124118 -0.11796661 48.94358826 -0.12025452 C51 0 51 0 52 1 C52.09851171 2.83115883 52.12972629 4.66619933 52.125 6.5 C52.12886719 8.00046875 52.12886719 8.00046875 52.1328125 9.53125 C52 12 52 12 51 13 C49.40389018 13.09333705 47.80366572 13.11745372 46.20483398 13.11352539 C45.18385117 13.11344986 44.16286835 13.11337433 43.11094666 13.11329651 C42.0005452 13.10813522 40.89014374 13.10297394 39.74609375 13.09765625 C38.61551041 13.0962413 37.48492706 13.09482635 36.32008362 13.09336853 C32.69252935 13.08775019 29.06503576 13.07519458 25.4375 13.0625 C22.98502693 13.05748736 20.5325529 13.05292405 18.08007812 13.04882812 C12.05336187 13.0377748 6.02669124 13.02049788 0 13 C0 8.71 0 4.42 0 0 Z " fill="#0E1720" transform="translate(876,503)"/>
<path d="M0 0 C4.29 0 8.58 0 13 0 C13.04932714 7.08413671 13.08568489 14.16817413 13.10986328 21.25244141 C13.11993954 23.66391744 13.13360081 26.07538122 13.15087891 28.48681641 C13.1750559 31.94697085 13.18646669 35.4069642 13.1953125 38.8671875 C13.20563507 39.95055389 13.21595764 41.03392029 13.22659302 42.15011597 C13.22674408 43.1510025 13.22689514 44.15188904 13.22705078 45.18310547 C13.231492 46.06690887 13.23593323 46.95071228 13.24050903 47.86129761 C13 50 13 50 11 52 C8.65234375 52.23046875 8.65234375 52.23046875 5.9375 52.1875 C5.03902344 52.18105469 4.14054688 52.17460938 3.21484375 52.16796875 C1 52 1 52 0 51 C-0.09333705 49.40389018 -0.11745372 47.80366572 -0.11352539 46.20483398 C-0.11344986 45.18385117 -0.11337433 44.16286835 -0.11329651 43.11094666 C-0.10813522 42.0005452 -0.10297394 40.89014374 -0.09765625 39.74609375 C-0.0962413 38.61551041 -0.09482635 37.48492706 -0.09336853 36.32008362 C-0.08775019 32.69252935 -0.07519458 29.06503576 -0.0625 25.4375 C-0.05748736 22.98502693 -0.05292405 20.5325529 -0.04882812 18.08007812 C-0.0377748 12.05336187 -0.02049788 6.02669124 0 0 Z " fill="#0E1921" transform="translate(680,855)"/>
<path d="M0 0 C4.29 0 8.58 0 13 0 C13.02464113 7.24487049 13.0428318 14.48971682 13.05493164 21.73461914 C13.05997356 24.20142033 13.06680691 26.66821852 13.07543945 29.13500977 C13.08751125 32.67204529 13.09322956 36.20904145 13.09765625 39.74609375 C13.10281754 40.85649521 13.10797882 41.96689667 13.11329651 43.11094666 C13.11337204 44.13192947 13.11344757 45.15291229 13.11352539 46.20483398 C13.115746 47.10862289 13.11796661 48.0124118 13.12025452 48.94358826 C13 51 13 51 12 52 C10.35769636 52.1245486 8.70947724 52.17568524 7.0625 52.1875 C6.16660156 52.20167969 5.27070312 52.21585938 4.34765625 52.23046875 C2 52 2 52 0 50 C-0.24050903 47.86129761 -0.24050903 47.86129761 -0.22705078 45.18310547 C-0.22689972 44.18221893 -0.22674866 43.1813324 -0.22659302 42.15011597 C-0.21627045 41.06674957 -0.20594788 39.98338318 -0.1953125 38.8671875 C-0.1924826 37.76021515 -0.18965271 36.6532428 -0.18673706 35.51272583 C-0.17551519 31.96670863 -0.15040691 28.42094125 -0.125 24.875 C-0.1149728 22.47526406 -0.1058465 20.07552417 -0.09765625 17.67578125 C-0.07556928 11.78375747 -0.0410257 5.89192113 0 0 Z " fill="#0D1821" transform="translate(623,855)"/>
<path d="M0 0 C-0.38180318 8.97237463 -5.8292903 15.33500839 -12.12109375 21.359375 C-15.26716658 24.10646562 -18.59467411 26.58531437 -22 29 C-22.2475 28.195625 -22.495 27.39125 -22.75 26.5625 C-23.72238859 23.828919 -23.72238859 23.828919 -26.125 23.1875 C-27.053125 23.0946875 -27.053125 23.0946875 -28 23 C-27.71208031 18.68898625 -26.15241552 16.80923112 -22.94946289 14.00366211 C-22.40926514 13.54870361 -21.86906738 13.09374512 -21.3125 12.625 C-17.80001877 9.56030454 -14.47804944 6.59728179 -11.5625 2.9375 C-7.8687622 -1.2967848 -5.01124209 -3.34082806 0 0 Z " fill="#0344B0" transform="translate(816,457)"/>
<path d="M0 0 C4.62 0 9.24 0 14 0 C14.04932714 7.08413671 14.08568489 14.16817413 14.10986328 21.25244141 C14.11993954 23.66391744 14.13360081 26.07538122 14.15087891 28.48681641 C14.1750559 31.94697085 14.18646669 35.4069642 14.1953125 38.8671875 C14.20563507 39.95055389 14.21595764 41.03392029 14.22659302 42.15011597 C14.22674408 43.1510025 14.22689514 44.15188904 14.22705078 45.18310547 C14.231492 46.06690887 14.23593323 46.95071228 14.24050903 47.86129761 C14 50 14 50 12 52 C9.8359375 52.1953125 9.8359375 52.1953125 7.375 52.125 C6.55773437 52.10695313 5.74046875 52.08890625 4.8984375 52.0703125 C4.27195312 52.04710937 3.64546875 52.02390625 3 52 C3 51.67 3 51.34 3 51 C5.64 51 8.28 51 11 51 C11 34.83 11 18.66 11 2 C8.03 2 5.06 2 2 2 C2 18.17 2 34.34 2 51 C1.34 51 0.68 51 0 51 C0 34.17 0 17.34 0 0 Z " fill="#323A42" transform="translate(511,855)"/>
<path d="M0 0 C4.29 0 8.58 0 13 0 C13.04932714 7.08413671 13.08568489 14.16817413 13.10986328 21.25244141 C13.11993954 23.66391744 13.13360081 26.07538122 13.15087891 28.48681641 C13.1750559 31.94697085 13.18646669 35.4069642 13.1953125 38.8671875 C13.20563507 39.95055389 13.21595764 41.03392029 13.22659302 42.15011597 C13.22674408 43.1510025 13.22689514 44.15188904 13.22705078 45.18310547 C13.231492 46.06690887 13.23593323 46.95071228 13.24050903 47.86129761 C13 50 13 50 11 52 C8.65234375 52.23046875 8.65234375 52.23046875 5.9375 52.1875 C5.03902344 52.18105469 4.14054688 52.17460938 3.21484375 52.16796875 C1 52 1 52 0 51 C-0.09333705 49.40389018 -0.11745372 47.80366572 -0.11352539 46.20483398 C-0.11344986 45.18385117 -0.11337433 44.16286835 -0.11329651 43.11094666 C-0.10813522 42.0005452 -0.10297394 40.89014374 -0.09765625 39.74609375 C-0.0962413 38.61551041 -0.09482635 37.48492706 -0.09336853 36.32008362 C-0.08775019 32.69252935 -0.07519458 29.06503576 -0.0625 25.4375 C-0.05748736 22.98502693 -0.05292405 20.5325529 -0.04882812 18.08007812 C-0.0377748 12.05336187 -0.02049788 6.02669124 0 0 Z M2 2 C2 18.17 2 34.34 2 51 C4.97 51 7.94 51 11 51 C11 34.83 11 18.66 11 2 C8.03 2 5.06 2 2 2 Z " fill="#181E27" transform="translate(680,855)"/>
<path d="M0 0 C0.556875 0.37125 1.11375 0.7425 1.6875 1.125 C1.22161505 6.83209064 -0.25007784 10.28439723 -3.3125 15.125 C-8.2625 14.795 -13.2125 14.465 -18.3125 14.125 C-6.28485189 -2.37805206 -6.28485189 -2.37805206 0 0 Z " fill="#112D53" transform="translate(814.3125,455.875)"/>
<path d="M0 0 C1.19109375 0.00773437 1.19109375 0.00773437 2.40625 0.015625 C3.2003125 0.01046875 3.994375 0.0053125 4.8125 0 C6.90625 0.265625 6.90625 0.265625 8.90625 2.265625 C9.14675903 4.55618286 9.14675903 4.55618286 9.13330078 7.44970703 C9.13307419 9.07116135 9.13307419 9.07116135 9.13284302 10.72537231 C9.12252045 11.89623383 9.11219788 13.06709534 9.1015625 14.2734375 C9.0987326 15.46919403 9.09590271 16.66495056 9.09298706 17.89694214 C9.08176305 21.72827019 9.05665431 25.55936722 9.03125 29.390625 C9.02122308 31.98306955 9.01209673 34.57551775 9.00390625 37.16796875 C8.98181643 43.53394362 8.94727133 49.8997451 8.90625 56.265625 C4.61625 56.265625 0.32625 56.265625 -4.09375 56.265625 C-4.1430706 48.61182605 -4.17943181 40.95811896 -4.20361328 33.30419922 C-4.21369064 30.69871409 -4.2273527 28.09324031 -4.24462891 25.48779297 C-4.26880102 21.74964601 -4.2802156 18.01164815 -4.2890625 14.2734375 C-4.29938507 13.10257599 -4.30970764 11.93171448 -4.32034302 10.72537231 C-4.32049408 9.64440277 -4.32064514 8.56343323 -4.32080078 7.44970703 C-4.325242 6.49484406 -4.32968323 5.53998108 -4.33425903 4.55618286 C-4.0093926 1.46222269 -3.12195275 0.39606863 0 0 Z M-3.09375 3.265625 C-3.09375 20.425625 -3.09375 37.585625 -3.09375 55.265625 C0.53625 55.265625 4.16625 55.265625 7.90625 55.265625 C7.90625 37.775625 7.90625 20.285625 7.90625 2.265625 C0.64411479 1.84398798 0.64411479 1.84398798 -3.09375 3.265625 Z " fill="#323840" transform="translate(740.09375,313.734375)"/>
<path d="M0 0 C4.29 0 8.58 0 13 0 C13 0.66 13 1.32 13 2 C9.37 2 5.74 2 2 2 C2.33 17.84 2.66 33.68 3 50 C5.64 50.33 8.28 50.66 11 51 C11 51.33 11 51.66 11 52 C9.54207116 52.05399736 8.08357288 52.09279177 6.625 52.125 C5.81289063 52.14820313 5.00078125 52.17140625 4.1640625 52.1953125 C2 52 2 52 0 50 C-0.24050903 47.86129761 -0.24050903 47.86129761 -0.22705078 45.18310547 C-0.22689972 44.18221893 -0.22674866 43.1813324 -0.22659302 42.15011597 C-0.21627045 41.06674957 -0.20594788 39.98338318 -0.1953125 38.8671875 C-0.1924826 37.76021515 -0.18965271 36.6532428 -0.18673706 35.51272583 C-0.17551519 31.96670863 -0.15040691 28.42094125 -0.125 24.875 C-0.1149728 22.47526406 -0.1058465 20.07552417 -0.09765625 17.67578125 C-0.07556928 11.78375747 -0.0410257 5.89192113 0 0 Z " fill="#242C35" transform="translate(623,855)"/>
<path d="M0 0 C2.4375 0.8125 2.4375 0.8125 4.4375 2.8125 C4.73828125 4.87109375 4.73828125 4.87109375 4.75 7.25 C4.76675781 8.03246094 4.78351562 8.81492187 4.80078125 9.62109375 C4.35459016 12.31263357 3.61841457 13.21316265 1.4375 14.8125 C-1.90442692 14.56796876 -3.16793557 14.20706443 -5.5625 11.8125 C-5.86328125 9.75390625 -5.86328125 9.75390625 -5.875 7.375 C-5.89175781 6.59253906 -5.90851562 5.81007813 -5.92578125 5.00390625 C-5.31086501 1.29457278 -3.76394927 -0.27541092 0 0 Z " fill="#EAF3FD" transform="translate(710.5625,435.1875)"/>
<path d="M0 0 C1.875 1.125 1.875 1.125 3 3 C3.39310741 6.14485925 3.47555213 8.13281671 1.9375 10.9375 C-1.21566824 12.66665678 -3.62508255 11.8590699 -7 11 C-9.15502531 7.76746204 -9.46856135 6.74849077 -9 3 C-6.73529086 -0.64869805 -4.03159541 -0.50394943 0 0 Z " fill="#E8F3FC" transform="translate(605,739)"/>
<path d="M0 0 C1.875 1.1875 1.875 1.1875 3 3 C3.4375 5.4375 3.4375 5.4375 3 8 C1.3125 10.375 1.3125 10.375 -1 12 C-3.89469562 11.92939767 -5.43880695 11.38702969 -7.8125 9.75 C-9.45364719 7.3314673 -9.42967368 5.86449123 -9 3 C-6.73529086 -0.64869805 -4.03159541 -0.50394943 0 0 Z " fill="#E3EFFC" transform="translate(747,764)"/>
<path d="M0 0 C2.875 0.9375 2.875 0.9375 4.875 3.9375 C4.6659311 6.72508532 4.21497443 8.44453708 2.625 10.75 C0.2064673 12.39114719 -1.26050877 12.36717368 -4.125 11.9375 C-5.9375 10.75 -5.9375 10.75 -7.125 8.9375 C-7.72136329 5.6149045 -7.41609393 4.36294497 -5.5 1.5625 C-3.125 -0.0625 -3.125 -0.0625 0 0 Z " fill="#E6F2FC" transform="translate(802.125,481.0625)"/>
<path d="M0 0 C1.670625 0.37125 1.670625 0.37125 3.375 0.75 C4.75625018 3.51250036 4.56579306 5.69731099 4.375 8.75 C2.375 10.75 2.375 10.75 -1.125 11 C-4.625 10.75 -4.625 10.75 -6.625 8.75 C-6.9375 5.25 -6.9375 5.25 -6.625 1.75 C-3.625 -0.25 -3.625 -0.25 0 0 Z " fill="#EBF4FD" transform="translate(630.625,432.25)"/>
<path d="M0 0 C2 1 2 1 3 3 C3.99 3.33 4.98 3.66 6 4 C6.33 6.31 6.66 8.62 7 11 C4.6739143 11.38063221 2.33944736 11.71269945 0 12 C-0.33 11.67 -0.66 11.34 -1 11 C-1.66 11.66 -2.32 12.32 -3 13 C-3.27429625 7.60550707 -3.36055646 4.48074195 0 0 Z " fill="#0258F5" transform="translate(787,477)"/>
<path d="M0 0 C0 3 0 3 -2 6 C-2.32906294 8.72847523 -2.32906294 8.72847523 -2.31884766 11.84838867 C-2.33871735 13.0494072 -2.35858704 14.25042572 -2.37905884 15.48783875 C-2.39061005 16.78478165 -2.40216125 18.08172455 -2.4140625 19.41796875 C-2.43277377 20.75890801 -2.45234716 22.0998355 -2.4727478 23.44075012 C-2.52407965 26.9670009 -2.56369948 30.49328987 -2.60089111 34.01971436 C-2.64092432 37.61935885 -2.69201974 41.21884439 -2.7421875 44.81835938 C-2.83895905 51.87878985 -2.92335981 58.93931999 -3 66 C-3.33 66 -3.66 66 -4 66 C-4.24683298 58.13358597 -4.46603101 50.26692657 -4.65021229 42.39882374 C-4.73660482 38.74507947 -4.83241289 35.0920945 -4.94995117 31.43920898 C-5.06308671 27.91227559 -5.1512111 24.38551308 -5.22220421 20.85748863 C-5.2688743 18.86014678 -5.34126402 16.86345953 -5.41401672 14.86689758 C-5.56256532 5.97594666 -5.56256532 5.97594666 -3.86703491 3.03451538 C-2.4831543 1.63549805 -2.4831543 1.63549805 0 0 Z " fill="#151F29" transform="translate(399,430)"/>
<path d="M0 0 C0 0.99 0 1.98 0 3 C0.30797843 4.90011695 0.64391674 6.79580768 1 8.6875 C1.185625 9.68136719 1.37125 10.67523438 1.5625 11.69921875 C1.706875 12.45847656 1.85125 13.21773438 2 14 C1.01 14.66 0.02 15.32 -1 16 C-1.2475 15.195625 -1.495 14.39125 -1.75 13.5625 C-2.72238859 10.828919 -2.72238859 10.828919 -5.125 10.1875 C-5.74375 10.125625 -6.3625 10.06375 -7 10 C-6.84518205 7.29068581 -6.51827919 5.53415961 -4.59765625 3.5546875 C-3.10228292 2.32320358 -1.5537076 1.1570163 0 0 Z " fill="#0A52CB" transform="translate(795,470)"/>
<path d="M0 0 C2.31 0.33 4.62 0.66 7 1 C6.67 1.66 6.34 2.32 6 3 C-10.83 3 -27.66 3 -45 3 C-45 2.67 -45 2.34 -45 2 C-22.725 1.505 -22.725 1.505 0 1 C0 0.67 0 0.34 0 0 Z " fill="#161E27" transform="translate(921,513)"/>
<path d="M0 0 C1.32 0.66 2.64 1.32 4 2 C3 3 3 3 0.94358826 3.12025452 C0.03979935 3.11803391 -0.86398956 3.11581329 -1.79516602 3.11352539 C-2.81614883 3.11344986 -3.83713165 3.11337433 -4.88905334 3.11329651 C-5.9994548 3.10813522 -7.10985626 3.10297394 -8.25390625 3.09765625 C-9.38448959 3.0962413 -10.51507294 3.09482635 -11.67991638 3.09336853 C-15.30747065 3.08775019 -18.93496424 3.07519458 -22.5625 3.0625 C-25.01497307 3.05748736 -27.4674471 3.05292405 -29.91992188 3.04882812 C-35.94663545 3.0377748 -41.97331339 3.02101884 -48 3 C-48 2.67 -48 2.34 -48 2 C-32.16 2 -16.32 2 0 2 C0 1.34 0 0.68 0 0 Z " fill="#1B1F27" transform="translate(924,567)"/>
<path d="M0 0 C2.00993705 3.01490557 2.72623341 5.2149927 3.625 8.6875 C3.88539063 9.68136719 4.14578125 10.67523437 4.4140625 11.69921875 C4.60742188 12.45847656 4.80078125 13.21773437 5 14 C4.01 14 3.02 14 2 14 C2 14.99 2 15.98 2 17 C1.34 17 0.68 17 0 17 C0 11.39 0 5.78 0 0 Z " fill="#EAF2F8" transform="translate(602,628)"/>
<path d="M0 0 C0.66 0 1.32 0 2 0 C3.35384615 6.4 3.35384615 6.4 1.5625 9.4375 C1.046875 9.953125 0.53125 10.46875 0 11 C-0.33 10.67 -0.66 10.34 -1 10 C-1.66 10.99 -2.32 11.98 -3 13 C-2.45144652 8.428721 -1.58255197 4.32564205 0 0 Z " fill="#C9E4FD" transform="translate(696,610)"/>
<path d="M0 0 C2 3 2 3 2 5 C3.65 4.01 5.3 3.02 7 2 C6.34 5.3 5.68 8.6 5 12 C4.34 12 3.68 12 3 12 C2.49166409 10.75336669 1.99368855 9.50250613 1.5 8.25 C1.2215625 7.55390625 0.943125 6.8578125 0.65625 6.140625 C0 4 0 4 0 0 Z " fill="#BEDEFC" transform="translate(741,637)"/>
<path d="M0 0 C0 0.33 0 0.66 0 1 C-2.97851562 1.34179688 -2.97851562 1.34179688 -5.95703125 1.68359375 C-8.19396393 1.97170735 -8.19396393 1.97170735 -11 3 C-11 3.66 -11 4.32 -11 5 C-13.5 6.625 -13.5 6.625 -16 8 C-16 7.01 -16 6.02 -16 5 C-10.72364606 0.17269746 -7.04020636 -0.7183884 0 0 Z " fill="#2986FB" transform="translate(633,421)"/>
<path d="M0 0 C3.3 0 6.6 0 10 0 C9.67 0.99 9.34 1.98 9 3 C5.7 3.66 2.4 4.32 -1 5 C-0.67 3.35 -0.34 1.7 0 0 Z " fill="#39424B" transform="translate(682,314)"/>
<path d="M0 0 C3.3 0 6.6 0 10 0 C9.67 0.99 9.34 1.98 9 3 C7.329375 3.2165625 7.329375 3.2165625 5.625 3.4375 C2.17857953 3.78372035 2.17857953 3.78372035 0 5 C-0.33 4.01 -0.66 3.02 -1 2 C-0.67 1.34 -0.34 0.68 0 0 Z " fill="#3F474E" transform="translate(569,314)"/>
<path d="M0 0 C0.33 1.32 0.66 2.64 1 4 C1.66 4 2.32 4 3 4 C3.33 3.01 3.66 2.02 4 1 C4.33 2.65 4.66 4.3 5 6 C4.01 6 3.02 6 2 6 C2 6.99 2 7.98 2 9 C1.34 9 0.68 9 0 9 C0 6.03 0 3.06 0 0 Z " fill="#DCE9F8" transform="translate(602,636)"/>
<path d="M0 0 C0.99 0 1.98 0 3 0 C3.25 6.625 3.25 6.625 1 10 C0.63883954 8.5225254 0.28624952 7.04295325 -0.0625 5.5625 C-0.25972656 4.73878906 -0.45695313 3.91507813 -0.66015625 3.06640625 C-0.82837891 2.04353516 -0.82837891 2.04353516 -1 1 C-0.67 0.67 -0.34 0.34 0 0 Z " fill="#0365E9" transform="translate(576,532)"/>
<path d="M0 0 C-1.29299694 2.88437779 -2.65941363 4.87219421 -5 7 C-5.99 6.67 -6.98 6.34 -8 6 C-7.0479279 4.99403703 -6.08812654 3.99538437 -5.125 3 C-4.59132813 2.443125 -4.05765625 1.88625 -3.5078125 1.3125 C-2 0 -2 0 0 0 Z " fill="#1E75FC" transform="translate(761,467)"/>
<path d="M0 0 C1 4 1 4 0 6 C0.66 6.33 1.32 6.66 2 7 C0.35 8.65 -1.3 10.3 -3 12 C-2.01 8.04 -1.02 4.08 0 0 Z " fill="#B6D9FD" transform="translate(672,691)"/>
<path d="M0 0 C-1.39332574 3.36720387 -2.9789286 4.9859524 -6 7 C-6.66 6.67 -7.32 6.34 -8 6 C-7.0479279 4.99403703 -6.08812654 3.99538437 -5.125 3 C-4.59132813 2.443125 -4.05765625 1.88625 -3.5078125 1.3125 C-2 0 -2 0 0 0 Z " fill="#227CF8" transform="translate(777,433)"/>
<path d="M0 0 C0.66 0.33 1.32 0.66 2 1 C-0.3125 3.5 -0.3125 3.5 -3 6 C-3.99 6 -4.98 6 -6 6 C-4.02 4.02 -2.04 2.04 0 0 Z " fill="#1C232C" transform="translate(840,781)"/>
<path d="M0 0 C0.66 0.33 1.32 0.66 2 1 C1.67 2.32 1.34 3.64 1 5 C0.34 5 -0.32 5 -1 5 C-1 5.66 -1 6.32 -1 7 C-1.66 7 -2.32 7 -3 7 C-1.125 1.125 -1.125 1.125 0 0 Z " fill="#1E6CF0" transform="translate(787,477)"/>
</svg>
